<svg width="40" height="40" viewBox="0 0 40 40" fill="none" xmlns="http://www.w3.org/2000/svg">
<circle cx="20" cy="13.3333" r="4.5" stroke="white" stroke-linecap="round"/>
<path d="M22.8798 10.3269C23.3096 9.74275 23.903 9.29919 24.5848 9.0523C25.2667 8.8054 26.0065 8.76625 26.7106 8.93979C27.4147 9.11333 28.0516 9.49177 28.5406 10.0273C29.0297 10.5627 29.349 11.2312 29.4581 11.9482C29.5672 12.6651 29.4613 13.3983 29.1537 14.0551C28.8461 14.7118 28.3507 15.2626 27.7301 15.6378C27.1095 16.0129 26.3916 16.1957 25.6671 16.1628C24.9427 16.13 24.2442 15.8831 23.6601 15.4533" stroke="white"/>
<path d="M17.0506 10.2353C16.6027 9.66498 15.9957 9.24025 15.3065 9.01485C14.6172 8.78946 13.8765 8.77351 13.1782 8.96905C12.4799 9.16458 11.8552 9.5628 11.3832 10.1134C10.9112 10.6639 10.613 11.3421 10.5264 12.0621C10.4398 12.7821 10.5687 13.5116 10.8967 14.1584C11.2247 14.8052 11.7371 15.3401 12.3692 15.6957C13.0013 16.0512 13.7246 16.2114 14.4476 16.1558C15.1707 16.1003 15.8611 15.8316 16.4314 15.3837" stroke="white"/>
<path d="M20.0002 20.8333C27.3779 20.8333 28.8177 27.3109 29.0987 29.8393C29.1597 30.3882 28.7191 30.8333 28.1668 30.8333H11.8335C11.2812 30.8333 10.8406 30.3882 10.9016 29.8393C11.1826 27.3109 12.6225 20.8333 20.0002 20.8333Z" stroke="white" stroke-linecap="round"/>
<path d="M32.3237 26.4122L32.8137 26.313V26.313L32.3237 26.4122ZM21.812 20.9766L21.4428 20.6395L20.8223 21.319L21.73 21.4698L21.812 20.9766ZM28.6357 27.5001L28.1554 27.639L28.2599 28.0001H28.6357V27.5001ZM25.8335 19.6667C27.8687 19.6667 29.2392 20.7781 30.1812 22.2166C31.1315 23.6678 31.61 25.4069 31.8336 26.5114L32.8137 26.313C32.5802 25.1594 32.0701 23.2758 31.0178 21.6688C29.9572 20.0491 28.3111 18.6667 25.8335 18.6667V19.6667ZM22.1813 21.3137C23.067 20.3436 24.242 19.6667 25.8335 19.6667V18.6667C23.9141 18.6667 22.4838 19.4992 21.4428 20.6395L22.1813 21.3137ZM21.73 21.4698C25.7474 22.1374 27.4356 25.1511 28.1554 27.639L29.116 27.3611C28.3472 24.7036 26.4607 21.2423 21.894 20.4834L21.73 21.4698ZM31.3952 27.0001H28.6357V28.0001H31.3952V27.0001ZM31.8336 26.5114C31.8824 26.7525 31.7011 27.0001 31.3952 27.0001V28.0001C32.2725 28.0001 32.9997 27.2316 32.8137 26.313L31.8336 26.5114Z" fill="white"/>
<path d="M18.188 20.9766L18.27 21.4698L19.1777 21.319L18.5572 20.6395L18.188 20.9766ZM7.67629 26.4122L8.16635 26.5114H8.16635L7.67629 26.4122ZM11.3643 27.5001V28.0001H11.7402L11.8446 27.639L11.3643 27.5001ZM14.1665 19.6667C15.758 19.6667 16.933 20.3436 17.8187 21.3137L18.5572 20.6395C17.5162 19.4992 16.0859 18.6667 14.1665 18.6667V19.6667ZM8.16635 26.5114C8.38993 25.4069 8.86852 23.6678 9.81881 22.2166C10.7608 20.7781 12.1313 19.6667 14.1665 19.6667V18.6667C11.6889 18.6667 10.0428 20.0491 8.98222 21.6688C7.92987 23.2758 7.41974 25.1594 7.18623 26.313L8.16635 26.5114ZM8.60481 27.0001C8.29889 27.0001 8.11754 26.7525 8.16635 26.5114L7.18623 26.313C7.00029 27.2316 7.72749 28.0001 8.60481 28.0001V27.0001ZM11.3643 27.0001H8.60481V28.0001H11.3643V27.0001ZM11.8446 27.639C12.5644 25.1511 14.2527 22.1374 18.27 21.4698L18.106 20.4834C13.5393 21.2423 11.6529 24.7036 10.884 27.3611L11.8446 27.639Z" fill="white"/>
</svg>
