<svg width="40" height="40" viewBox="0 0 40 40" fill="none" xmlns="http://www.w3.org/2000/svg">
<path d="M19.9998 21.6667V34.0979C19.9998 34.4968 19.9998 34.6962 19.871 34.7676C19.7422 34.839 19.5731 34.7333 19.2348 34.5219L7.60651 27.2542C7.14698 26.967 6.91722 26.8234 6.79186 26.5972C6.6665 26.371 6.6665 26.1001 6.6665 25.5582V13.3333M19.9998 21.6667L6.6665 13.3333M19.9998 21.6667L30.6196 15.0293C31.8374 14.2682 32.4464 13.8876 32.4464 13.3333C32.4464 12.7791 31.8374 12.3985 30.6196 11.6373L21.0598 5.6625C20.5444 5.34033 20.2866 5.17925 19.9998 5.17925C19.713 5.17925 19.4553 5.34033 18.9398 5.6625L6.6665 13.3333" stroke="white" stroke-width="2" stroke-linejoin="round"/>
<path d="M32.3332 20.0001C32.3332 20.5524 32.7809 21.0001 33.3332 21.0001C33.8855 21.0001 34.3332 20.5524 34.3332 20.0001H32.3332ZM33.2078 13.4029L34.0825 12.9181L33.2078 13.4029ZM32.3332 14.4419V20.0001H34.3332V14.4419H32.3332ZM32.9232 11.8979L27.1965 8.31875L26.1365 10.0147L31.8632 13.5939L32.9232 11.8979ZM34.3332 14.4419C34.3332 14.1898 34.3342 13.931 34.313 13.7087C34.2897 13.4653 34.2348 13.193 34.0825 12.9181L32.3332 13.8877C32.3062 13.839 32.314 13.8153 32.322 13.8993C32.3321 14.0045 32.3332 14.1521 32.3332 14.4419H34.3332ZM31.8632 13.5939C32.1089 13.7475 32.2335 13.8266 32.3174 13.8909C32.3844 13.9423 32.3602 13.9364 32.3332 13.8877L34.0825 12.9181C33.9301 12.6433 33.7283 12.4524 33.5342 12.3036C33.357 12.1678 33.137 12.0315 32.9232 11.8979L31.8632 13.5939Z" fill="white"/>
<circle cx="29.1667" cy="27.4999" r="4.16667" stroke="white" stroke-width="2"/>
<path d="M35 33.3333L32.5 30.8333" stroke="white" stroke-width="2" stroke-linecap="round"/>
<path d="M23.8635 33.7646C24.3318 33.4719 24.4742 32.8549 24.1815 32.3866C23.8888 31.9182 23.2718 31.7759 22.8035 32.0686L23.8635 33.7646ZM21.0602 34.3374L21.5902 35.1854L21.0602 34.3374ZM20.0002 34.8207V33.8207V34.8207ZM19.4702 33.4894L13.8635 29.9853L12.8035 31.6813L18.4102 35.1854L19.4702 33.4894ZM21.1368 33.1103L20.5302 33.4894L21.5902 35.1854L22.1968 34.8063L21.1368 33.1103ZM22.8035 32.0686L21.9702 32.5894L23.0302 34.2854L23.8635 33.7646L22.8035 32.0686ZM21.9702 32.5894L21.1368 33.1103L22.1968 34.8063L23.0302 34.2854L21.9702 32.5894ZM18.4102 35.1854C18.6503 35.3355 18.8944 35.4895 19.1166 35.5982C19.3599 35.7171 19.6508 35.8207 20.0002 35.8207V33.8207C20.0628 33.8207 20.0814 33.8437 19.9952 33.8015C19.888 33.7491 19.7455 33.6615 19.4702 33.4894L18.4102 35.1854ZM20.5302 33.4894C20.2549 33.6615 20.1123 33.7491 20.0051 33.8015C19.9189 33.8437 19.9376 33.8207 20.0002 33.8207V35.8207C20.3496 35.8207 20.6404 35.7171 20.8837 35.5982C21.1059 35.4895 21.35 35.3355 21.5902 35.1854L20.5302 33.4894Z" fill="white"/>
</svg>
